# File produced by Open Asset Import Library (http://www.assimp.sf.net)
# (assimp v3.1.151580502)

mtllib Key1.mtl

# 75 vertex positions
v  2.0289 1.09341 -0.834656
v  0.00478803 1.94024 0
v  2.0289 1.09341 0.800212
v  0.805 1.09341 -1.98059
v  -0.829868 1.09341 -1.96633
v  -1.96867 1.09341 -0.800212
v  -1.96867 1.09341 0.834656
v  -0.491339 1.09341 2.35069
v  0.535359 1.09341 2.33642
v  -0.886247 1.35386 6.58642
v  0.946972 1.35386 6.56682
v  0.240251 1.35386 2.87896
v  -0.189172 1.35386 2.88349
v  2.40679 0 0.951501
v  2.40679 0 -0.992457
v  0.951501 0 -2.35505
v  -0.992457 0 -2.33808
v  -2.34656 0 -0.951501
v  -2.34656 0 0.992457
v  -0.951501 0 2.35505
v  -1.56291 0.98044 7.13724
v  1.62314 0.98044 7.10318
v  0.992458 0 2.33808
v  -2.34656 0 7.64102
v  2.40679 0 7.59898
v  0.997231 0.201031 -2.47229
v  1.0539 0.201031 -2.61757
v  -1.04209 0.201031 -2.45449
v  -1.08185 0.201031 2.39106
v  -1.24336 0.201031 2.43569
v  -2.4986 0.201031 7.75921
v  1.12302 0.201031 2.3737
v  1.28481 0.201031 2.41784
v  2.52363 0.201031 1.00058
v  2.52363 0.201031 -1.04312
v  -2.4634 0.201031 -0.999088
v  2.55883 0.201031 7.71448
v  -2.4634 0.201031 1.04166
v  2.66841 0.201031 1.06139
v  2.66841 0.201031 -1.1059
v  -1.10358 0.201031 -2.59874
v  -2.60818 0.201031 -1.05806
v  2.74723 0.201031 7.85759
v  -2.68699 0.201031 7.90566
v  -2.60818 0.201031 1.10263
v  2.80468 0.295124 -1.16499
v  2.80507 0.294467 1.11879
v  2.92191 0.0934365 1.16786
v  2.92152 0.0940936 -1.21565
v  -1.16167 0.294278 -2.73501
v  1.10759 0.293536 -2.75524
v  1.15332 0.0925052 -2.87248
v  -1.2113 0.0932469 -2.85142
v  -2.74519 0.293867 -1.11386
v  -2.86203 0.0928358 -1.16144
v  1.43165 0.303499 2.4579
v  2.87787 0.356853 7.95684
v  3.02991 0.155823 8.07234
v  1.56221 0.102468 2.49352
v  -2.81656 0.35825 8.0064
v  -2.9686 0.157219 8.12459
v  -1.39003 0.303387 2.47621
v  -1.52037 0.102356 2.51222
v  -2.74481 0.29452 1.16017
v  -2.86165 0.0934891 1.20937
v  2.78525 0 1.11047
v  2.78525 0 -1.15656
v  1.09963 0 -2.73481
v  -1.15321 0 -2.71515
v  -2.72502 0 -1.10564
v  2.89927 0 7.97309
v  1.41537 0 2.45346
v  -2.83902 0 8.02385
v  -1.37371 0 2.4717
v  -2.72502 0 1.15184

# 155 UV coordinates
vt 0.853553 0.853553 0
vt 0.5 0.5 0
vt 1 0.5 0
vt 0.5 1 0
vt 0.146447 0.853553 0
vt 0 0.5 0
vt 0.146447 0.146447 0
vt 0.5 0 0
vt 0.853554 0.146447 0
vt 0.842111 0.157889 0
vt 0.842565 0.842565 0
vt 0.145325 0.854675 0
vt 0.144594 0.144594 0
vt 1 0 0
vt 1 1 0
vt 0 1 0
vt 0 0 0
vt 0 0.0287025 0
vt 0.0129363 1 0
vt 0.960358 0 0
vt 0.0130272 0 0
vt 0.959789 1 0
vt 0.727777 0.457872 0
vt 0.727777 0.782231 0
vt 0.706109 0.772835 0
vt 0.706109 0.466973 0
vt 0.553938 0.425977 0
vt 0.556755 0.103086 0
vt 0.578344 0.112289 0
vt 0.616009 0.10292 0
vt 0.610901 0.433893 0
vt 0.589369 0.42489 0
vt 0.594198 0.11198 0
vt 0.527649 0.975215 0
vt 0.205359 0.977021 0
vt 0.214063 0.955304 0
vt 0.518513 0.953597 0
vt 0.173775 0.994502 0
vt 0.392643 0.180381 0
vt 0.416856 0.173775 0
vt 0.201971 0.973083 0
vt 0.790758 0.0943919 0
vt 0.783563 0.907684 0
vt 0.762144 0.879488 0
vt 0.768839 0.122586 0
vt 0.988535 0.852266 0
vt 0.976946 0.0056696 0
vt 0.999 0.0337576 0
vt 0.513705 0.911538 0
vt 0.223829 0.919471 0
vt 0.232334 0.897562 0
vt 0.532722 0.974829 0
vt 0.818244 0.973208 0
vt 0.830993 0.994804 0
vt 0.541969 0.996445 0
vt 0.650074 0.767983 0
vt 0.650074 0.444612 0
vt 0.671742 0.453737 0
vt 0.671742 0.759158 0
vt 0.125322 0.103731 0
vt 0.467115 0.103829 0
vt 0.47446 0.133916 0
vt 0.11774 0.133818 0
vt 0.650074 0.440857 0
vt 0.650185 0.101236 0
vt 0.680271 0.0943919 0
vt 0.68016 0.448285 0
vt 0.465359 0.150427 0
vt 0.465597 0.404416 0
vt 0.43551 0.421902 0
vt 0.435272 0.157271 0
vt 0.23448 0.860267 0
vt 0.477103 0.860206 0
vt 0.494526 0.890292 0
vt 0.241602 0.890354 0
vt 0.905628 0.0950565 0
vt 0.913613 0.918035 0
vt 0.883526 0.935321 0
vt 0.875541 0.100388 0
vt 0.88066 0.0544072 0
vt 0.0284231 0.0546162 0
vt 0.0056696 0.0245296 0
vt 0.903414 0.0243206 0
vt 0.969857 0.0233579 0
vt 0.961646 0.851014 0
vt 0.931559 0.845624 0
vt 0.93977 0.0056696 0
vt 0.444697 0.848266 0
vt 0.239149 0.849617 0
vt 0.25869 0.819531 0
vt 0.462183 0.818179 0
vt 0.127079 0.996398 0
vt 0.128406 0.793639 0
vt 0.158493 0.776153 0
vt 0.157166 0.97689 0
vt 0.706109 0.441848 0
vt 0.706207 0.101514 0
vt 0.736293 0.0943919 0
vt 0.736195 0.449212 0
vt 0.46587 0.1479 0
vt 0.126583 0.1479 0
vt 0.748229 0.449281 0
vt 0.748172 0.791074 0
vt 0.694116 0.102428 0
vt 0.694116 0.439591 0
vt 0.533334 0.434013 0
vt 0.536362 0.0943919 0
vt 0.265428 0.64397 0
vt 0.0174638 0.908601 0
vt 0.0086204 0.888206 0
vt 0.244824 0.635933 0
vt 0.636537 0.0943919 0
vt 0.631304 0.442425 0
vt 0.00935112 0.0430264 0
vt 0.262275 0.290077 0
vt 0.241882 0.298771 0
vt 0.001 0.0635305 0
vt 0.53628 0.995635 0
vt 0.197123 0.997572 0
vt 0.860206 0.920468 0
vt 0.860206 0.0943919 0
vt 0.827491 0.0943919 0
vt 0.819506 0.91737 0
vt 0.80417 0.923366 0
vt 0.804171 0.109245 0
vt 0.0250625 0.001 0
vt 0.883863 0.001 0
vt 0.0523655 0.0663743 0
vt 0.904602 0.0665834 0
vt 0.885051 0.0899041 0
vt 0.0717584 0.089904 0
vt 0.916241 0.851689 0
vt 0.916241 0.0207454 0
vt 0.852176 0.114466 0
vt 0.860387 0.942121 0
vt 0.836858 0.927045 0
vt 0.836858 0.108401 0
vt 0.521033 0.0943919 0
vt 0.522392 0.378593 0
vt 0.502813 0.390237 0
vt 0.500647 0.103136 0
vt 0.502752 0.931511 0
vt 0.215801 0.94015 0
vt 0.481578 0.420793 0
vt 0.472629 0.141088 0
vt 0.493319 0.149098 0
vt 0.501581 0.431678 0
vt 0.523995 0.954431 0
vt 0.806667 0.953597 0
vt 0.750187 0.102743 0
vt 0.750187 0.440601 0
vt 0.696655 0.444612 0
vt 0.696753 0.784945 0
vt 0.682761 0.776334 0
vt 0.682761 0.452963 0

# 229 vertex normals
vn 0.385956 0.922517 5.64879e-17
vn 0.385956 0.922517 5.64879e-17
vn 0.267317 0.920342 -0.285503
vn 0.267317 0.920342 -0.285503
vn -0.0034404 0.918971 -0.39431
vn -0.0034404 0.918971 -0.39431
vn -0.282424 0.918785 -0.275809
vn -0.282424 0.918785 -0.275808
vn -0.282424 0.918785 -0.275809
vn -0.394338 0.918966 5.62704e-17
vn -0.394338 0.918966 5.62704e-17
vn -0.394338 0.918966 5.62704e-17
vn -0.279734 0.920566 0.272594
vn -0.279734 0.920566 0.272594
vn 0.00472209 0.940484 0.339805
vn 0.00472209 0.940484 0.339805
vn 0.00472209 0.940484 0.339805
vn 0.278486 0.921487 0.270752
vn 0.278486 0.921487 0.270752
vn 0 1 6.12323e-17
vn 0.945145 0.326651 2.00016e-17
vn 0.945145 0.326651 2.00016e-17
vn 0.945145 0.326651 2.00016e-17
vn 0.646786 0.323231 -0.690789
vn 0.646786 0.323231 -0.690789
vn 0.646786 0.323231 -0.690789
vn -0.00825853 0.32299 -0.946366
vn -0.00825854 0.32299 -0.946366
vn -0.00825882 0.32299 -0.946366
vn -0.676539 0.325235 -0.660694
vn -0.676539 0.325235 -0.660694
vn -0.676539 0.325235 -0.660694
vn -0.945145 0.326651 2.00016e-17
vn -0.945145 0.326651 2.00016e-17
vn -0.676349 0.328873 0.659086
vn -0.669829 0.284634 0.685793
vn -0.669829 0.284634 0.685793
vn 0.0060526 0.82424 0.566208
vn 0.0060527 0.82424 0.566208
vn 0.0060527 0.82424 0.566208
vn 0.686604 0.288051 0.667534
vn 0.662651 0.322541 0.675914
vn 0.662651 0.322541 0.675914
vn 0.542766 0.833419 -0.104013
vn 0.542766 0.833419 -0.104013
vn 0.542766 0.833419 -0.104013
vn 0.543432 0.832952 -0.104272
vn 0.543432 0.832952 -0.104272
vn -0.904551 0.37991 -0.193537
vn -0.904551 0.37991 -0.193537
vn -0.904551 0.37991 -0.193537
vn -0.813757 0.54007 -0.214765
vn -0.813757 0.54007 -0.214765
vn -0.813757 0.54007 -0.214765
vn 0.00954063 0.450964 0.892491
vn 0.00954063 0.450963 0.892491
vn 0.00787108 0.456255 0.889814
vn 0.00787108 0.456255 0.889814
vn 0.810049 0.560701 -0.171566
vn 0.810049 0.560701 -0.171566
vn 0.895611 0.374044 -0.240775
vn 0.895611 0.374044 -0.240775
vn 0.895611 0.374044 -0.240775
vn -0.00458494 0.900518 -0.434796
vn -0.00458494 0.900517 -0.434796
vn -0.00606419 0.89974 -0.436384
vn -0.00606419 0.89974 -0.436384
vn -0.540479 0.835183 -0.101745
vn -0.540479 0.835183 -0.101745
vn -0.542934 0.833573 -0.101875
vn -0.542934 0.833573 -0.101875
vn -0.864579 0.502498 3.07691e-17
vn -0.864579 0.502498 3.07691e-17
vn 0.00754474 0.502498 0.864545
vn 0.00754474 0.502498 0.864545
vn 0.00754478 0.502498 0.864545
vn -0.590918 0.502498 0.63112
vn -0.590918 0.502498 0.63112
vn -0.590918 0.502498 0.63112
vn 0.61855 0.502497 0.604063
vn 0.61855 0.502497 0.604063
vn 0.61855 0.502498 0.604063
vn -0.834933 0.502497 0.224463
vn -0.834933 0.502497 0.224463
vn -0.834933 0.502498 0.224462
vn -0.00764756 0.502498 -0.864545
vn -0.00764756 0.502498 -0.864544
vn -0.00764755 0.502499 -0.864544
vn 0.835955 0.502498 0.220624
vn 0.835955 0.502498 0.220624
vn 0.835955 0.502498 0.220624
vn 0.835956 0.502498 0.220624
vn -0.605262 0.502498 -0.617377
vn -0.605262 0.502497 -0.617377
vn 0.604109 0.502497 -0.618506
vn 0.604108 0.502497 -0.618506
vn 0.864579 0.502498 3.07691e-17
vn 0.864579 0.502498 3.07691e-17
vn 0.864579 0.502498 -1.13459e-08
vn 0.864579 0.502498 -1.13459e-08
vn 0.864579 0.502498 -1.13459e-08
vn 0.864579 0.502498 -1.08696e-08
vn -0.00754475 0.502497 -0.864546
vn -0.00754475 0.502497 -0.864546
vn -0.00754472 0.502497 -0.864546
vn 0.590918 0.502498 -0.63112
vn 0.590918 0.502497 -0.63112
vn -0.61855 0.502498 -0.604063
vn -0.61855 0.502498 -0.604063
vn -0.61855 0.502497 -0.604063
vn 0.834933 0.502497 -0.224463
vn 0.834933 0.502497 -0.224463
vn 0.834933 0.502497 -0.224463
vn 0.834933 0.502497 -0.224463
vn 0.0076476 0.502495 0.864546
vn 0.0076476 0.502495 0.864546
vn 0.00764746 0.502498 0.864545
vn -0.835956 0.502497 -0.220624
vn -0.835956 0.502497 -0.220624
vn -0.835955 0.502498 -0.220624
vn 0.605263 0.502497 0.617377
vn 0.605262 0.502497 0.617377
vn 0.605262 0.502497 0.617377
vn 0.605262 0.502498 0.617377
vn -0.604109 0.502497 0.618506
vn -0.604109 0.502497 0.618506
vn -0.604109 0.502497 0.618506
vn -0.604109 0.502497 0.618506
vn -0.864579 0.502497 -1.23303e-08
vn -0.864579 0.502497 -1.23303e-08
vn -0.864579 0.502497 -1.23303e-08
vn -0.864579 0.502497 -1.18253e-08
vn 0.564512 -0.825425 -0.000318022
vn 0.568194 -0.822895 -5.03878e-17
vn 0.568194 -0.822895 -5.03878e-17
vn 0.568194 -0.822895 -5.03878e-17
vn -0.568097 0.822962 0.000331802
vn -0.568097 0.822962 0.000331802
vn -0.568097 0.822962 0.000331802
vn -0.564422 0.825487 5.05465e-17
vn -0.564422 0.825487 5.05465e-17
vn -0.00524134 -0.829067 -0.559125
vn -0.00524134 -0.829067 -0.559125
vn -0.00491587 -0.826232 -0.563309
vn -0.00491587 -0.826232 -0.563309
vn -0.00491587 -0.826232 -0.563309
vn 0.00529199 0.826304 0.563199
vn 0.00529199 0.826304 0.563199
vn 0.00529199 0.826304 0.563199
vn 0.00487849 0.829134 0.559029
vn 0.00487849 0.829134 0.559029
vn 0.388746 -0.823048 -0.414088
vn 0.388746 -0.823048 -0.414088
vn 0.382097 -0.829134 -0.408092
vn 0.382097 -0.829134 -0.408092
vn 0.382097 -0.829134 -0.408092
vn -0.38282 0.828987 0.407711
vn -0.38282 0.828987 0.407711
vn -0.388347 0.822895 0.414767
vn -0.388347 0.822895 0.414767
vn -0.402845 -0.826271 -0.393691
vn -0.402845 -0.826271 -0.393691
vn -0.401331 -0.827842 -0.391932
vn -0.401331 -0.827842 -0.391932
vn -0.401331 -0.827842 -0.391932
vn 0.401227 0.827803 0.392122
vn 0.401227 0.827803 0.392122
vn 0.403027 0.826232 0.393587
vn 0.403027 0.826232 0.393588
vn 0.810732 -0.547199 -0.208057
vn 0.810732 -0.547199 -0.208057
vn 0.810732 -0.547199 -0.208057
vn 0.593843 -0.788583 -0.159648
vn 0.593843 -0.788583 -0.159648
vn -0.592818 0.791578 0.14823
vn -0.592818 0.791578 0.14823
vn -0.811805 0.541611 0.218245
vn -0.811805 0.541611 0.218245
vn -0.811805 0.541611 0.218245
vn 0.00723276 -0.535234 0.844673
vn 0.00723276 -0.535234 0.844673
vn 0.00723276 -0.535234 0.844673
vn 0.00743576 -0.541611 0.840596
vn 0.00743576 -0.541611 0.840596
vn 0.00743576 -0.541611 0.840596
vn -0.00718398 0.541463 -0.840694
vn -0.00718398 0.541463 -0.840694
vn -0.00718398 0.541462 -0.840694
vn -0.00747256 0.535096 -0.844758
vn -0.00747256 0.535096 -0.844758
vn -0.00747256 0.535096 -0.844758
vn -0.592902 -0.792067 -0.145251
vn -0.592902 -0.792067 -0.145251
vn -0.592902 -0.792067 -0.145251
vn -0.816823 -0.535096 -0.215574
vn -0.816823 -0.535096 -0.215574
vn 0.815701 0.540914 0.205047
vn 0.815701 0.540914 0.205047
vn 0.815701 0.540914 0.205047
vn 0.593982 0.789057 0.156762
vn 0.427979 -0.787025 0.444327
vn 0.427979 -0.787025 0.444327
vn 0.427979 -0.787025 0.444327
vn 0.395132 -0.825487 0.403041
vn 0.395132 -0.825487 0.403041
vn 0.395132 -0.825487 0.403041
vn -0.392336 0.82441 -0.407946
vn -0.392336 0.82441 -0.407946
vn -0.43049 0.788584 -0.439106
vn -0.43049 0.788584 -0.439106
vn -0.43049 0.788584 -0.439106
vn -0.391767 -0.824193 0.408931
vn -0.391767 -0.824193 0.408931
vn -0.391767 -0.824193 0.408931
vn -0.429244 -0.789057 0.439474
vn -0.429244 -0.789057 0.439474
vn -0.429244 -0.789057 0.439474
vn 0.426752 0.787525 -0.44462
vn 0.426752 0.787525 -0.44462
vn 0.426752 0.787525 -0.44462
vn 0.39459 0.82528 -0.403994
vn -0.56105 -0.827782 0.000317862
vn -0.56105 -0.827782 0.000317862
vn -0.564724 -0.82528 -5.05338e-17
vn -0.564724 -0.82528 -5.05338e-17
vn 0.564629 0.825345 -0.000331289
vn 0.564629 0.825345 -0.000331289
vn 0.560961 0.827842 5.06907e-17
vn 0.560961 0.827842 5.06907e-17

# Mesh 'Keyhole_Pi_Keyhole_Pi' with 69 faces
g Keyhole_Pi_Keyhole_Pi
usemtl KeyHole
f  1/1/1 2/2/1 3/3/2
f  4/4/3 2/2/4 1/1/3
f  5/5/5 2/2/5 4/4/6
f  6/6/7 2/2/8 5/5/9
f  7/7/10 2/2/11 6/6/12
f  8/8/13 2/2/14 7/7/13
f  9/9/15 2/2/16 8/8/17
f  3/3/18 2/2/19 9/9/18
f  10/10/20 11/11/20 12/12/20
f  13/13/20 10/10/20 12/12/20
f  1/1/21 3/3/22 14/3/23
f  15/1/23 1/1/21 14/3/23
f  4/4/24 1/1/25 15/1/24
f  16/4/26 4/4/24 15/1/24
f  5/5/27 4/4/27 16/4/28
f  17/5/29 5/5/27 16/4/28
f  6/6/30 5/5/30 17/5/31
f  18/6/32 6/6/30 17/5/31
f  7/7/33 6/6/33 18/6/33
f  19/7/34 7/7/33 18/6/33
f  8/8/35 7/7/35 19/7/35
f  20/8/36 8/8/36 19/7/37
f  11/11/38 10/10/38 21/14/38
f  22/15/39 11/11/40 21/14/40
f  3/3/41 9/9/41 23/9/41
f  14/3/42 3/3/42 23/9/43
f  12/12/44 11/11/45 22/15/46
f  9/16/47 12/12/48 22/15/47
f  21/14/49 8/17/50 20/17/51
f  24/14/52 21/14/53 20/17/54
f  22/15/55 21/14/56 24/14/56
f  25/15/57 22/15/58 24/14/57
f  9/16/59 22/15/60 25/15/60
f  23/16/61 9/16/62 25/15/63
f  13/13/64 12/12/64 9/16/65
f  8/17/66 13/13/67 9/16/66
f  10/10/68 13/13/69 8/17/69
f  21/14/70 10/10/71 8/17/71
f  26/17/20 27/18/20 28/16/20
f  29/19/20 30/16/20 31/15/20
f  32/20/20 33/14/20 34/17/20
f  34/16/72 35/15/72 15/15/73
f  14/16/72 34/16/72 15/15/73
f  26/17/74 28/16/75 17/16/75
f  16/17/76 26/17/74 17/16/75
f  35/14/77 26/17/78 16/17/79
f  15/14/78 35/14/77 16/17/79
f  28/16/80 36/15/80 18/15/81
f  17/16/82 28/16/80 18/15/81
f  37/14/83 32/21/84 23/17/84
f  25/14/85 37/14/83 23/17/84
f  31/15/86 37/14/87 25/14/87
f  24/15/88 31/15/86 25/14/87
f  29/19/89 31/15/90 24/15/91
f  20/16/92 29/19/89 24/15/91
f  32/20/93 34/17/93 14/17/93
f  23/14/94 32/20/93 14/17/93
f  38/16/95 29/22/95 20/15/95
f  19/16/96 38/16/95 20/15/95
f  36/14/97 38/17/97 19/17/98
f  18/14/98 36/14/97 19/17/98
f  24/14/20 25/15/20 23/16/20
f  20/17/20 24/14/20 23/16/20
f  14/14/20 19/15/20 20/16/20
f  23/17/20 14/14/20 20/16/20
f  15/14/20 18/15/20 19/16/20
f  14/17/20 15/14/20 19/16/20
f  18/14/20 15/15/20 16/16/20
f  17/17/20 18/14/20 16/16/20

# Mesh 'BottomKey_BottomKey' with 77 faces
g BottomKey_BottomKey
usemtl BottomKey
f  39/23/20 40/24/20 35/25/20
f  34/26/20 39/23/20 35/25/20
f  27/27/20 41/28/20 28/29/20
f  40/30/20 27/31/20 26/32/20
f  35/33/20 40/30/20 26/32/20
f  41/34/20 42/35/20 36/36/20
f  28/37/20 41/34/20 36/36/20
f  43/38/20 33/39/20 32/40/20
f  37/41/20 43/38/20 32/40/20
f  44/42/20 43/43/20 37/44/20
f  31/45/20 44/42/20 37/44/20
f  30/46/20 44/47/20 31/48/20
f  33/49/20 39/50/20 34/51/20
f  45/52/20 30/53/20 29/54/20
f  38/55/20 45/52/20 29/54/20
f  42/56/20 45/57/20 38/58/20
f  36/59/20 42/56/20 38/58/20
f  46/60/99 47/61/100 48/62/101
f  49/63/102 46/60/99 48/62/101
f  50/64/103 51/65/104 52/66/104
f  53/67/105 50/64/103 52/66/104
f  51/68/106 46/69/106 49/70/106
f  52/71/107 51/68/106 49/70/106
f  54/72/108 50/73/109 53/74/108
f  55/75/110 54/72/108 53/74/108
f  56/76/111 57/77/112 58/78/113
f  59/79/114 56/76/111 58/78/113
f  57/80/115 60/81/116 61/82/116
f  58/83/117 57/80/115 61/82/116
f  60/84/118 62/85/119 63/86/118
f  61/87/120 60/84/118 63/86/118
f  47/88/121 56/89/122 59/90/123
f  48/91/124 47/88/121 59/90/123
f  62/92/125 64/93/126 65/94/127
f  63/95/128 62/92/125 65/94/127
f  64/96/129 54/97/130 55/98/131
f  65/99/132 64/96/129 55/98/131
f  49/63/133 48/62/133 66/100/133
f  67/101/134 49/63/135 66/100/136
f  47/102/137 46/103/138 40/24/139
f  39/23/140 47/102/141 40/24/141
f  53/67/142 52/66/143 68/104/142
f  69/105/144 53/67/145 68/104/146
f  51/106/147 50/107/148 41/28/149
f  27/27/150 51/106/151 41/28/151
f  52/108/152 49/109/153 67/110/153
f  68/111/154 52/108/155 67/110/156
f  46/112/157 51/113/158 27/31/157
f  40/30/159 46/112/160 27/31/160
f  55/114/161 53/115/161 69/116/162
f  70/117/163 55/114/164 69/116/165
f  50/118/166 54/119/167 42/35/167
f  41/34/168 50/118/169 42/35/169
f  59/79/170 58/78/171 71/120/172
f  72/121/173 59/79/174 71/120/174
f  57/122/175 56/123/176 33/124/175
f  43/125/177 57/122/178 33/124/179
f  58/83/180 61/82/181 73/126/182
f  71/127/183 58/83/184 73/126/185
f  60/128/186 57/129/187 43/130/188
f  44/131/189 60/128/190 43/130/191
f  61/87/192 63/86/193 74/132/194
f  73/133/195 61/87/196 74/132/196
f  62/134/197 60/135/198 44/136/199
f  30/137/200 62/134/200 44/136/200
f  48/138/201 59/139/202 72/140/203
f  66/141/204 48/138/205 72/140/206
f  56/142/207 47/143/208 39/50/208
f  33/49/209 56/142/210 39/50/211
f  63/144/212 65/145/213 75/146/214
f  74/147/215 63/144/216 75/146/217
f  64/148/218 62/149/219 30/53/220
f  45/52/221 64/148/221 30/53/221
f  65/99/222 55/98/223 70/150/222
f  75/151/224 65/99/225 70/150/224
f  54/152/226 64/153/226 45/154/227
f  42/155/228 54/152/229 45/154/228

